<svg id="Layer_1" data-name="Layer 1" xmlns="http://www.w3.org/2000/svg" viewBox="0 0 1000 1000"><defs><style>.cls-1,.cls-2,.cls-3{fill:#fff;}.cls-2{stroke:#fff;stroke-miterlimit:10;stroke-width:10.01px;}.cls-3{font-size:132.52px;font-family:Montserrat-Bold, Montserrat;font-weight:700;}.cls-4{letter-spacing:0em;}.cls-5{letter-spacing:0em;}.cls-6{letter-spacing:0em;}.cls-7{letter-spacing:0.01em;}.cls-8{letter-spacing:-0.02em;}</style></defs><path class="cls-1" d="M422.45,418.85c18.84,20.63,18.61,46.29,18.41,67.2a174,174,0,0,1-3,31c2.77,2.2,5.3,4.58,7.82,7A227.61,227.61,0,0,0,451,491.12c1.5-16.18,2.39-26.61-.92-40.05A90.84,90.84,0,0,0,437.64,423c-7.51-11.25-20.74-25.12-50.18-37.3-31.24-12.91-59.61-13.85-115.08-15.18,0,0-34.11-.82-96.22,9.21-7,1.13-20,3.34-32.22,12.88A62.14,62.14,0,0,0,120,445.55l-29,1.37c.3,5.84.61,11.66.91,17.5,9.52-.16,16.79,1.82,26.3,1.67,2.41,34,11.27,59,17,77.52,1.8,5.86,3.45,11.06,5.1,16,2.17-5.07,4.53-10.07,7-15-3.09-9.7-5.72-19.37-8-28.63A257.35,257.35,0,0,1,132,452.44c-.36-3.82-1.85-23.09,12-39.58a53.39,53.39,0,0,1,27.17-17c38.39-4.5,126.57-13,199.78-.92C386.22,397.44,407,402,422.45,418.85Z"/><path class="cls-1" d="M856.06,412.86c13.82,16.49,12.33,35.76,12,39.58A257.35,257.35,0,0,1,860.67,516c-1.73,7-3.65,14.27-5.76,21.59,1.71.21,3.41.43,5.24.68a36.35,36.35,0,0,1,5.9,1.38c5.68-18.11,13.49-41.85,15.73-73.53,9.51.15,16.78-1.83,26.3-1.67.3-5.84.61-11.66.91-17.5l-29-1.37a62.14,62.14,0,0,0-23.93-52.95c-12.26-9.54-25.18-11.75-32.22-12.88-62.11-10-96.22-9.21-96.22-9.21-55.47,1.33-83.84,2.27-115.08,15.18-29.44,12.18-42.67,26.05-50.18,37.3a90.84,90.84,0,0,0-12.43,28.08c-3.31,13.44-2.42,23.87-.92,40.05a227.83,227.83,0,0,0,5.22,32.53c3-.06,6.1-.09,9.19,0a172.2,172.2,0,0,1-4.28-37.58c-.2-20.91-.43-46.57,18.41-67.2,15.42-16.89,36.23-21.41,51.56-24,73.21-12.09,161.39-3.58,199.78.92A53.39,53.39,0,0,1,856.06,412.86Z"/><line class="cls-2" x1="330.51" y1="376.27" x2="677.02" y2="376.27"/><path class="cls-2" d="M447.42,461.77c10.14-4.17,30.48-11.41,50.76-12.08a134.29,134.29,0,0,1,54.55,9.66"/><text class="cls-3" transform="translate(140.74 625.37)"><tspan class="cls-4">C</tspan><tspan class="cls-5" x="96.6" y="0">a</tspan><tspan class="cls-6" x="178.36" y="0">n</tspan><tspan class="cls-7" x="269.4" y="0">’</tspan><tspan x="304.91" y="0">t</tspan><tspan class="cls-8" x="362.56" y="0">C</tspan><tspan x="457.17" y="0">ook</tspan></text></svg>